<svg width="611" height="1178" viewBox="0 0 611 1178" fill="none" xmlns="http://www.w3.org/2000/svg">
<g opacity="0.2" clip-path="url(#clip0_104_1183)">
<rect width="72" height="39" transform="translate(452 1076)" fill="white"/>
<path d="M455.302 1082.49C457.126 1082.49 458.604 1081.03 458.604 1079.24C458.604 1077.45 457.126 1076 455.302 1076C453.478 1076 452 1077.45 452 1079.24C452 1081.03 453.478 1082.49 455.302 1082.49Z" fill="#3A5174"/>
<path d="M476.906 1082.49C478.729 1082.49 480.208 1081.03 480.208 1079.24C480.208 1077.45 478.729 1076 476.906 1076C475.082 1076 473.604 1077.45 473.604 1079.24C473.604 1081.03 475.082 1082.49 476.906 1082.49Z" fill="#3A5174"/>
<path d="M498.51 1082.49C500.333 1082.49 501.812 1081.03 501.812 1079.24C501.812 1077.45 500.333 1076 498.51 1076C496.686 1076 495.208 1077.45 495.208 1079.24C495.208 1081.03 496.686 1082.49 498.51 1082.49Z" fill="#3A5174"/>
<path d="M520.114 1082.49C521.937 1082.49 523.416 1081.03 523.416 1079.24C523.416 1077.45 521.937 1076 520.114 1076C518.29 1076 516.812 1077.45 516.812 1079.24C516.812 1081.03 518.29 1082.49 520.114 1082.49Z" fill="#3A5174"/>
<path d="M455.302 1114.45C457.126 1114.45 458.604 1113 458.604 1111.21C458.604 1109.42 457.126 1107.96 455.302 1107.96C453.478 1107.96 452 1109.42 452 1111.21C452 1113 453.478 1114.45 455.302 1114.45Z" fill="#3A5174"/>
<path d="M476.906 1114.45C478.729 1114.45 480.208 1113 480.208 1111.21C480.208 1109.42 478.729 1107.96 476.906 1107.96C475.082 1107.96 473.604 1109.42 473.604 1111.21C473.604 1113 475.082 1114.45 476.906 1114.45Z" fill="#3A5174"/>
<path d="M498.51 1113.97C500.333 1113.97 501.812 1112.52 501.812 1110.73C501.812 1108.94 500.333 1107.49 498.51 1107.49C496.686 1107.49 495.208 1108.94 495.208 1110.73C495.208 1112.52 496.686 1113.97 498.51 1113.97Z" fill="#3A5174"/>
<path d="M520.114 1114.45C521.937 1114.45 523.416 1113 523.416 1111.21C523.416 1109.42 521.937 1107.96 520.114 1107.96C518.29 1107.96 516.812 1109.42 516.812 1111.21C516.812 1113 518.29 1114.45 520.114 1114.45Z" fill="#3A5174"/>
</g>
<g opacity="0.2">
<rect width="72" height="102" transform="translate(539 1076)" fill="white"/>
<path d="M542.302 1082.49C544.126 1082.49 545.604 1081.03 545.604 1079.24C545.604 1077.45 544.126 1076 542.302 1076C540.478 1076 539 1077.45 539 1079.24C539 1081.03 540.478 1082.49 542.302 1082.49Z" fill="#3A5174"/>
<path d="M563.906 1082.49C565.729 1082.49 567.208 1081.03 567.208 1079.24C567.208 1077.45 565.729 1076 563.906 1076C562.082 1076 560.604 1077.45 560.604 1079.24C560.604 1081.03 562.082 1082.49 563.906 1082.49Z" fill="#3A5174"/>
<path d="M585.51 1082.49C587.333 1082.49 588.812 1081.03 588.812 1079.24C588.812 1077.45 587.333 1076 585.51 1076C583.686 1076 582.208 1077.45 582.208 1079.24C582.208 1081.03 583.686 1082.49 585.51 1082.49Z" fill="#3A5174"/>
<path d="M607.114 1082.49C608.937 1082.49 610.416 1081.03 610.416 1079.24C610.416 1077.45 608.937 1076 607.114 1076C605.29 1076 603.812 1077.45 603.812 1079.24C603.812 1081.03 605.29 1082.49 607.114 1082.49Z" fill="#3A5174"/>
<path d="M542.302 1114.45C544.126 1114.45 545.604 1113 545.604 1111.21C545.604 1109.42 544.126 1107.96 542.302 1107.96C540.478 1107.96 539 1109.42 539 1111.21C539 1113 540.478 1114.45 542.302 1114.45Z" fill="#3A5174"/>
<path d="M563.906 1114.45C565.729 1114.45 567.208 1113 567.208 1111.21C567.208 1109.42 565.729 1107.96 563.906 1107.96C562.082 1107.96 560.604 1109.42 560.604 1111.21C560.604 1113 562.082 1114.45 563.906 1114.45Z" fill="#3A5174"/>
<path d="M585.51 1113.97C587.333 1113.97 588.812 1112.52 588.812 1110.73C588.812 1108.94 587.333 1107.49 585.51 1107.49C583.686 1107.49 582.208 1108.94 582.208 1110.73C582.208 1112.52 583.686 1113.97 585.51 1113.97Z" fill="#3A5174"/>
<path d="M607.114 1114.45C608.937 1114.45 610.416 1113 610.416 1111.21C610.416 1109.42 608.937 1107.96 607.114 1107.96C605.29 1107.96 603.812 1109.42 603.812 1111.21C603.812 1113 605.29 1114.45 607.114 1114.45Z" fill="#3A5174"/>
</g>
<g opacity="0.2" clip-path="url(#clip1_104_1183)">
<path d="M90.3019 6.48643C92.1255 6.48643 93.6039 5.03439 93.6039 3.24321C93.6039 1.45204 92.1255 0 90.3019 0C88.4783 0 87 1.45204 87 3.24321C87 5.03439 88.4783 6.48643 90.3019 6.48643Z" fill="#3A5174"/>
<path d="M111.906 6.48643C113.729 6.48643 115.208 5.03439 115.208 3.24321C115.208 1.45204 113.729 0 111.906 0C110.082 0 108.604 1.45204 108.604 3.24321C108.604 5.03439 110.082 6.48643 111.906 6.48643Z" fill="#3A5174"/>
<path d="M133.51 6.48643C135.333 6.48643 136.812 5.03439 136.812 3.24321C136.812 1.45204 135.333 0 133.51 0C131.686 0 130.208 1.45204 130.208 3.24321C130.208 5.03439 131.686 6.48643 133.51 6.48643Z" fill="#3A5174"/>
<path d="M155.114 6.48643C156.937 6.48643 158.416 5.03439 158.416 3.24321C158.416 1.45204 156.937 0 155.114 0C153.29 0 151.812 1.45204 151.812 3.24321C151.812 5.03439 153.29 6.48643 155.114 6.48643Z" fill="#3A5174"/>
<path d="M90.3019 38.451C92.1255 38.451 93.6039 36.999 93.6039 35.2078C93.6039 33.4166 92.1255 31.9646 90.3019 31.9646C88.4783 31.9646 87 33.4166 87 35.2078C87 36.999 88.4783 38.451 90.3019 38.451Z" fill="#3A5174"/>
<path d="M111.906 38.451C113.729 38.451 115.208 36.999 115.208 35.2078C115.208 33.4166 113.729 31.9646 111.906 31.9646C110.082 31.9646 108.604 33.4166 108.604 35.2078C108.604 36.999 110.082 38.451 111.906 38.451Z" fill="#3A5174"/>
<path d="M133.51 37.9729C135.333 37.9729 136.812 36.5208 136.812 34.7297C136.812 32.9385 135.333 31.4865 133.51 31.4865C131.686 31.4865 130.208 32.9385 130.208 34.7297C130.208 36.5208 131.686 37.9729 133.51 37.9729Z" fill="#3A5174"/>
<path d="M155.114 38.451C156.937 38.451 158.416 36.999 158.416 35.2078C158.416 33.4166 156.937 31.9646 155.114 31.9646C153.29 31.9646 151.812 33.4166 151.812 35.2078C151.812 36.999 153.29 38.451 155.114 38.451Z" fill="#3A5174"/>
<path d="M93.6155 66.6943C93.6155 68.4884 92.1401 69.9375 90.3135 69.9375C88.4869 69.9375 87.0116 68.4884 87.0116 66.6943C87.0116 64.9001 88.4869 63.451 90.3135 63.451C92.1401 63.451 93.6155 64.9001 93.6155 66.6943Z" fill="#3A5174"/>
<path d="M115.219 66.6943C115.219 68.4884 113.744 69.9375 111.917 69.9375C110.091 69.9375 108.615 68.4884 108.615 66.6943C108.615 64.9001 110.091 63.451 111.917 63.451C113.744 63.451 115.219 64.9001 115.219 66.6943Z" fill="#3A5174"/>
<path d="M136.823 66.6943C136.823 68.4884 135.348 69.9375 133.521 69.9375C131.695 69.9375 130.219 68.4884 130.219 66.6943C130.219 64.9001 131.695 63.451 133.521 63.451C135.348 63.451 136.823 64.9001 136.823 66.6943Z" fill="#3A5174"/>
<path d="M158.427 66.6943C158.427 68.4884 156.952 69.9375 155.125 69.9375C153.299 69.9375 151.823 68.4884 151.823 66.6943C151.823 64.9001 153.299 63.451 155.125 63.451C156.952 63.451 158.427 64.9001 158.427 66.6943Z" fill="#3A5174"/>
<path d="M93.6155 98.1807C93.6155 99.9748 92.1401 101.424 90.3135 101.424C88.4869 101.424 87.0116 99.9748 87.0116 98.1807C87.0116 96.3866 88.4869 94.9375 90.3135 94.9375C92.1401 94.9375 93.6155 96.3866 93.6155 98.1807Z" fill="#3A5174"/>
<path d="M115.219 98.1807C115.219 99.9748 113.744 101.424 111.917 101.424C110.091 101.424 108.615 99.9748 108.615 98.1807C108.615 96.3866 110.091 94.9375 111.917 94.9375C113.744 94.9375 115.219 96.3866 115.219 98.1807Z" fill="#3A5174"/>
<path d="M136.823 98.1807C136.823 99.9748 135.348 101.424 133.521 101.424C131.695 101.424 130.219 99.9748 130.219 98.1807C130.219 96.3866 131.695 94.9375 133.521 94.9375C135.348 94.9375 136.823 96.3866 136.823 98.1807Z" fill="#3A5174"/>
<path d="M158.427 98.1807C158.427 99.9748 156.952 101.424 155.125 101.424C153.299 101.424 151.823 99.9748 151.823 98.1807C151.823 96.3866 153.299 94.9375 155.125 94.9375C156.952 94.9375 158.427 96.3866 158.427 98.1807Z" fill="#3A5174"/>
</g>
<g opacity="0.2" clip-path="url(#clip2_104_1183)">
<path d="M3.30194 6.48643C5.12555 6.48643 6.60387 5.03439 6.60387 3.24321C6.60387 1.45204 5.12555 0 3.30194 0C1.47833 0 0 1.45204 0 3.24321C0 5.03439 1.47833 6.48643 3.30194 6.48643Z" fill="#3A5174"/>
<path d="M24.9058 6.48643C26.7294 6.48643 28.2078 5.03439 28.2078 3.24321C28.2078 1.45204 26.7294 0 24.9058 0C23.0822 0 21.6039 1.45204 21.6039 3.24321C21.6039 5.03439 23.0822 6.48643 24.9058 6.48643Z" fill="#3A5174"/>
<path d="M46.5097 6.48643C48.3333 6.48643 49.8116 5.03439 49.8116 3.24321C49.8116 1.45204 48.3333 0 46.5097 0C44.6861 0 43.2078 1.45204 43.2078 3.24321C43.2078 5.03439 44.6861 6.48643 46.5097 6.48643Z" fill="#3A5174"/>
<path d="M68.1136 6.48643C69.9372 6.48643 71.4155 5.03439 71.4155 3.24321C71.4155 1.45204 69.9372 0 68.1136 0C66.29 0 64.8116 1.45204 64.8116 3.24321C64.8116 5.03439 66.29 6.48643 68.1136 6.48643Z" fill="#3A5174"/>
<path d="M3.30194 38.451C5.12555 38.451 6.60387 36.999 6.60387 35.2078C6.60387 33.4166 5.12555 31.9646 3.30194 31.9646C1.47833 31.9646 0 33.4166 0 35.2078C0 36.999 1.47833 38.451 3.30194 38.451Z" fill="#3A5174"/>
<path d="M24.9058 38.451C26.7294 38.451 28.2078 36.999 28.2078 35.2078C28.2078 33.4166 26.7294 31.9646 24.9058 31.9646C23.0822 31.9646 21.6039 33.4166 21.6039 35.2078C21.6039 36.999 23.0822 38.451 24.9058 38.451Z" fill="#3A5174"/>
<path d="M46.5097 37.9729C48.3333 37.9729 49.8116 36.5208 49.8116 34.7297C49.8116 32.9385 48.3333 31.4865 46.5097 31.4865C44.6861 31.4865 43.2078 32.9385 43.2078 34.7297C43.2078 36.5208 44.6861 37.9729 46.5097 37.9729Z" fill="#3A5174"/>
<path d="M68.1136 38.451C69.9372 38.451 71.4155 36.999 71.4155 35.2078C71.4155 33.4166 69.9372 31.9646 68.1136 31.9646C66.29 31.9646 64.8116 33.4166 64.8116 35.2078C64.8116 36.999 66.29 38.451 68.1136 38.451Z" fill="#3A5174"/>
<path d="M6.61547 66.6943C6.61547 68.4884 5.14014 69.9375 3.31353 69.9375C1.48693 69.9375 0.0115967 68.4884 0.0115967 66.6943C0.0115967 64.9001 1.48693 63.451 3.31353 63.451C5.14014 63.451 6.61547 64.9001 6.61547 66.6943Z" fill="#3A5174"/>
<path d="M28.2194 66.6943C28.2194 68.4884 26.744 69.9375 24.9174 69.9375C23.0908 69.9375 21.6155 68.4884 21.6155 66.6943C21.6155 64.9001 23.0908 63.451 24.9174 63.451C26.744 63.451 28.2194 64.9001 28.2194 66.6943Z" fill="#3A5174"/>
<path d="M49.8232 66.6943C49.8232 68.4884 48.3479 69.9375 46.5213 69.9375C44.6947 69.9375 43.2194 68.4884 43.2194 66.6943C43.2194 64.9001 44.6947 63.451 46.5213 63.451C48.3479 63.451 49.8232 64.9001 49.8232 66.6943Z" fill="#3A5174"/>
<path d="M71.4271 66.6943C71.4271 68.4884 69.9518 69.9375 68.1252 69.9375C66.2986 69.9375 64.8232 68.4884 64.8232 66.6943C64.8232 64.9001 66.2986 63.451 68.1252 63.451C69.9518 63.451 71.4271 64.9001 71.4271 66.6943Z" fill="#3A5174"/>
<path d="M6.61547 98.1807C6.61547 99.9748 5.14014 101.424 3.31353 101.424C1.48693 101.424 0.0115967 99.9748 0.0115967 98.1807C0.0115967 96.3866 1.48693 94.9375 3.31353 94.9375C5.14014 94.9375 6.61547 96.3866 6.61547 98.1807Z" fill="#3A5174"/>
<path d="M28.2194 98.1807C28.2194 99.9748 26.744 101.424 24.9174 101.424C23.0908 101.424 21.6155 99.9748 21.6155 98.1807C21.6155 96.3866 23.0908 94.9375 24.9174 94.9375C26.744 94.9375 28.2194 96.3866 28.2194 98.1807Z" fill="#3A5174"/>
<path d="M49.8232 98.1807C49.8232 99.9748 48.3479 101.424 46.5213 101.424C44.6947 101.424 43.2194 99.9748 43.2194 98.1807C43.2194 96.3866 44.6947 94.9375 46.5213 94.9375C48.3479 94.9375 49.8232 96.3866 49.8232 98.1807Z" fill="#3A5174"/>
<path d="M71.4271 98.1807C71.4271 99.9748 69.9518 101.424 68.1252 101.424C66.2986 101.424 64.8232 99.9748 64.8232 98.1807C64.8232 96.3866 66.2986 94.9375 68.1252 94.9375C69.9518 94.9375 71.4271 96.3866 71.4271 98.1807Z" fill="#3A5174"/>
</g>
<defs>
<clipPath id="clip0_104_1183">
<rect width="72" height="39" fill="white" transform="translate(452 1076)"/>
</clipPath>
<clipPath id="clip1_104_1183">
<rect width="72" height="102" fill="white" transform="translate(87)"/>
</clipPath>
<clipPath id="clip2_104_1183">
<rect width="72" height="102" fill="white"/>
</clipPath>
</defs>
</svg>
