<svg width="25" height="24" viewBox="0 0 25 24" fill="none" xmlns="http://www.w3.org/2000/svg">
<g clip-path="url(#clip0_201_20)">
<path d="M18.2852 0.155029H6.43314C3.11455 0.155029 0.50708 2.76249 0.50708 6.08109V17.9332C0.50708 21.2518 3.11455 23.8593 6.43314 23.8593H18.2852C21.6038 23.8593 24.2113 21.2518 24.2113 17.9332V6.08109C24.2113 2.76249 21.6038 0.155029 18.2852 0.155029ZM21.8409 17.9332C21.8409 19.9481 20.3001 21.4888 18.2852 21.4888H6.43314C4.41828 21.4888 2.8775 19.9481 2.8775 17.9332V6.08109C2.8775 4.06623 4.41828 2.52545 6.43314 2.52545H18.2852C20.3001 2.52545 21.8409 4.06623 21.8409 6.08109V17.9332Z" fill="#3A5174"/>
<path d="M12.3592 6.08105C9.04057 6.08105 6.43311 8.68852 6.43311 12.0071C6.43311 15.3257 9.04057 17.9332 12.3592 17.9332C15.6778 17.9332 18.2852 15.3257 18.2852 12.0071C18.2852 8.68852 15.6778 6.08105 12.3592 6.08105ZM12.3592 15.5627C10.3443 15.5627 8.80353 14.022 8.80353 12.0071C8.80353 9.99225 10.3443 8.45148 12.3592 8.45148C14.374 8.45148 15.9148 9.99225 15.9148 12.0071C15.9148 14.022 14.374 15.5627 12.3592 15.5627Z" fill="#3A5174"/>
<path d="M18.2853 7.26642C18.9399 7.26642 19.4705 6.73578 19.4705 6.08121C19.4705 5.42663 18.9399 4.896 18.2853 4.896C17.6307 4.896 17.1001 5.42663 17.1001 6.08121C17.1001 6.73578 17.6307 7.26642 18.2853 7.26642Z" fill="#3A5174"/>
</g>
<defs>
<clipPath id="clip0_201_20">
<rect width="23.7042" height="23.7042" fill="white" transform="translate(0.50708 0.155029)"/>
</clipPath>
</defs>
</svg>
