<svg width="27" height="25" viewBox="0 0 27 25" fill="none" xmlns="http://www.w3.org/2000/svg">
<path d="M26.648 24.8592V16.0393C26.648 11.7045 25.6459 8.39331 20.2155 8.39331C17.5973 8.39331 15.8518 9.71781 15.1406 10.9821H15.076V8.78464H9.93646V24.8592H15.3022V16.8821C15.3022 14.775 15.7225 12.7581 18.5023 12.7581C21.2499 12.7581 21.2822 15.1362 21.2822 17.0025V24.8291H26.648V24.8592Z" fill="#3A5174"/>
<path d="M1.20892 8.78394H6.57471V24.8585H1.20892V8.78394Z" fill="#3A5174"/>
<path d="M3.8918 0.7771C2.17863 0.7771 0.788696 2.07149 0.788696 3.6669C0.788696 5.26232 2.17863 6.58681 3.8918 6.58681C5.60497 6.58681 6.99491 5.26232 6.99491 3.6669C6.99491 2.07149 5.60497 0.7771 3.8918 0.7771Z" fill="#3A5174"/>
</svg>
