<svg width="27" height="26" viewBox="0 0 27 26" fill="none" xmlns="http://www.w3.org/2000/svg">
<g clip-path="url(#clip0_201_15)">
<path d="M6.86648 18.1201C7.2623 18.1201 7.60133 17.8807 7.88272 17.4008C10.4571 12.8359 11.7963 10.4597 11.9008 10.2715L9.33694 5.8005C9.06584 5.33148 8.72182 5.09692 8.30519 5.09692H4.56847C4.32837 5.09692 4.16208 5.17509 4.06812 5.33143C3.95335 5.48777 3.95862 5.68071 4.08367 5.90966L6.60063 10.2715C6.61087 10.2826 6.61087 10.2873 6.60063 10.2873L2.64519 17.2916C2.54128 17.4901 2.54128 17.6775 2.64519 17.8541C2.74915 18.0318 2.91103 18.1201 3.12975 18.1201H6.86648Z" fill="#3A5174"/>
<path d="M24.017 0H20.2493C19.8429 0 19.5091 0.234508 19.2489 0.703571C13.9019 10.1883 11.1346 15.0979 10.9469 15.4308L16.2467 25.1556C16.4968 25.6246 16.8408 25.8592 17.2785 25.8592H21.0149C21.2441 25.8592 21.411 25.781 21.5153 25.6246C21.6192 25.4469 21.6142 25.254 21.4997 25.0458L16.247 15.4308V15.4156L24.5019 0.813028C24.6163 0.594354 24.6163 0.401993 24.5019 0.234795C24.4079 0.0781693 24.2463 0 24.017 0Z" fill="#3A5174"/>
</g>
<defs>
<clipPath id="clip0_201_15">
<rect width="25.8592" height="25.8592" fill="white" transform="translate(0.647949)"/>
</clipPath>
</defs>
</svg>
